<svg width="20" height="20" viewBox="0 0 20 20" fill="none" xmlns="http://www.w3.org/2000/svg">
<path d="M9.99023 12.4854C10.2577 12.4854 10.4902 12.5776 10.6848 12.76C10.8803 12.9434 10.979 13.1712 10.979 13.4399C10.979 13.7095 10.8766 13.9379 10.675 14.1211C10.4809 14.3026 10.2519 14.3945 9.99023 14.3945C9.72278 14.3945 9.49028 14.3023 9.29565 14.1199C9.10102 13.9313 9.00146 13.7034 9.00146 13.4399C9.00147 13.1767 9.09963 12.9515 9.29443 12.7686C9.48894 12.5801 9.72214 12.4854 9.99023 12.4854Z" fill="#FF2638"/>
<path d="M9.98169 5.51147C10.2247 5.51149 10.4295 5.59019 10.5908 5.75073L10.6995 5.87524C10.793 6.00756 10.8384 6.16303 10.8337 6.33911L10.7043 10.8679C10.7013 11.1024 10.6436 11.29 10.52 11.4185C10.3958 11.5475 10.2151 11.6064 9.99023 11.6064C9.75988 11.6064 9.57433 11.547 9.4458 11.4185C9.31787 11.2902 9.25644 11.1029 9.25049 10.8679L9.13818 6.33057C9.13205 6.09754 9.20671 5.89949 9.36279 5.74341C9.52474 5.58769 9.73345 5.51147 9.98169 5.51147Z" fill="#FF2638"/>
<path fill-rule="evenodd" clip-rule="evenodd" d="M9.99023 1.18774C11.1936 1.18775 12.3287 1.4177 13.3948 1.87866C14.4599 2.33927 15.3989 2.97583 16.2109 3.78784C17.0229 4.59985 17.6595 5.53884 18.1201 6.604C18.5811 7.66439 18.811 8.79665 18.811 10C18.811 11.2034 18.5811 12.3385 18.1201 13.4045C17.6595 14.464 17.0229 15.4002 16.2109 16.2122C15.3989 17.0242 14.4599 17.6607 13.3948 18.1213C12.3344 18.5823 11.2021 18.8123 9.99878 18.8123C8.79539 18.8123 7.6603 18.5823 6.59424 18.1213C5.53481 17.6607 4.59857 17.0241 3.78662 16.2122C2.97467 15.4002 2.33806 14.464 1.87744 13.4045C1.41648 12.3385 1.18652 11.2034 1.18652 10C1.18652 8.79665 1.41646 7.66439 1.87744 6.604C2.33801 5.53894 2.97184 4.59984 3.77808 3.78784C4.59002 2.9759 5.52627 2.33928 6.58569 1.87866L6.98853 1.71631C7.93642 1.3634 8.93726 1.18774 9.99023 1.18774ZM9.99023 2.771C9.11163 2.771 8.28379 2.91444 7.5061 3.20068L7.17529 3.33252C6.30198 3.70113 5.53672 4.21713 4.87915 4.88037C4.30363 5.4609 3.83635 6.12139 3.47778 6.86279L3.3313 7.18506C2.96301 8.05763 2.77832 8.99561 2.77832 10C2.77832 11.0044 2.96301 11.9424 3.3313 12.8149L3.47778 13.1372C3.83635 13.8786 4.30363 14.5391 4.87915 15.1196C5.54247 15.7772 6.31042 16.2931 7.18384 16.6675C8.05634 17.0414 8.9945 17.229 9.99878 17.229C11.0031 17.229 11.9412 17.0414 12.8137 16.6675C13.6871 16.2931 14.4551 15.7772 15.1184 15.1196C15.7818 14.4563 16.2976 13.6883 16.6663 12.8149L16.7981 12.4841C17.0843 11.7064 17.2278 10.8786 17.2278 10C17.2278 8.99572 17.0402 8.05756 16.6663 7.18506C16.2919 6.31168 15.7732 5.54372 15.1099 4.88037C14.5346 4.30014 13.8747 3.83253 13.1299 3.47778L12.8052 3.33252C11.9327 2.95859 10.9945 2.771 9.99023 2.771Z" fill="#FF2638"/>
</svg>
