<svg width="20" height="20" viewBox="0 0 20 20" fill="none" xmlns="http://www.w3.org/2000/svg">
<path d="M10.2563 8.39355C10.4879 8.3936 10.6724 8.47073 10.8008 8.63037C10.927 8.78194 10.9875 8.98413 10.9875 9.22852V13.5315H11.9885C12.1806 13.5315 12.3455 13.5945 12.478 13.7207C12.6109 13.8472 12.6781 14.0066 12.6782 14.1943C12.6782 14.3823 12.611 14.5426 12.478 14.6692C12.3455 14.7954 12.1806 14.8584 11.9885 14.8584H8.49731C8.3053 14.8583 8.14033 14.7954 8.00781 14.6692C7.875 14.5426 7.80884 14.3822 7.80884 14.1943C7.80896 14.0067 7.87518 13.8472 8.00781 13.7207C8.14033 13.5945 8.3053 13.5315 8.49731 13.5315H9.49829V9.71924H8.6438C8.45168 9.71924 8.28687 9.65629 8.1543 9.53003C8.02149 9.40344 7.95411 9.2443 7.9541 9.0564C7.9541 8.8685 8.0215 8.70935 8.1543 8.58276C8.28687 8.45651 8.45168 8.39355 8.6438 8.39355H10.2563Z" fill="#3B90F7"/>
<path d="M9.92188 4.72168C10.252 4.72175 10.5308 4.83675 10.7544 5.06592C10.9837 5.29526 11.0999 5.57752 11.0999 5.9082C11.0998 6.23313 10.9842 6.51178 10.7556 6.74072C10.5318 6.97055 10.2525 7.08611 9.92188 7.08618C9.59666 7.08618 9.3172 6.97091 9.08813 6.74194C8.85906 6.51287 8.74392 6.23346 8.7439 5.9082C8.7439 5.57752 8.85879 5.29526 9.08813 5.06592C9.31723 4.83686 9.5966 4.72168 9.92188 4.72168Z" fill="#3B90F7"/>
<path fill-rule="evenodd" clip-rule="evenodd" d="M9.99023 1.18774C11.1936 1.18775 12.3287 1.4177 13.3948 1.87866C14.4599 2.33927 15.3989 2.97583 16.2109 3.78784C17.0229 4.59985 17.6595 5.53884 18.1201 6.604C18.5811 7.66439 18.811 8.79665 18.811 10C18.811 11.2034 18.5811 12.3385 18.1201 13.4045C17.6595 14.464 17.0229 15.4002 16.2109 16.2122C15.3989 17.0242 14.4599 17.6607 13.3948 18.1213C12.3344 18.5823 11.2021 18.8123 9.99878 18.8123C8.79539 18.8123 7.6603 18.5823 6.59424 18.1213C5.53481 17.6607 4.59857 17.0241 3.78662 16.2122C2.97467 15.4002 2.33806 14.464 1.87744 13.4045C1.41648 12.3385 1.18652 11.2034 1.18652 10C1.18652 8.79665 1.41646 7.66439 1.87744 6.604C2.33801 5.53894 2.97184 4.59984 3.77808 3.78784C4.59002 2.9759 5.52627 2.33928 6.58569 1.87866L6.98853 1.71631C7.93642 1.3634 8.93726 1.18774 9.99023 1.18774ZM9.99023 2.771C9.11163 2.771 8.28379 2.91444 7.5061 3.20068L7.17529 3.33252C6.30198 3.70113 5.53672 4.21713 4.87915 4.88037C4.30363 5.4609 3.83635 6.12139 3.47778 6.86279L3.3313 7.18506C2.96301 8.05763 2.77832 8.99561 2.77832 10C2.77832 11.0044 2.96301 11.9424 3.3313 12.8149L3.47778 13.1372C3.83635 13.8786 4.30363 14.5391 4.87915 15.1196C5.54247 15.7772 6.31042 16.2931 7.18384 16.6675C8.05634 17.0414 8.9945 17.229 9.99878 17.229C11.0031 17.229 11.9412 17.0414 12.8137 16.6675C13.6871 16.2931 14.4551 15.7772 15.1184 15.1196C15.7818 14.4563 16.2976 13.6883 16.6663 12.8149L16.7981 12.4841C17.0843 11.7064 17.2278 10.8786 17.2278 10C17.2278 8.99572 17.0402 8.05756 16.6663 7.18506C16.2919 6.31168 15.7732 5.54372 15.1099 4.88037C14.5346 4.30014 13.8747 3.83253 13.1299 3.47778L12.8052 3.33252C11.9327 2.95859 10.9945 2.771 9.99023 2.771Z" fill="#3B90F7"/>
</svg>
