<svg xmlns="http://www.w3.org/2000/svg" width="20" height="20" fill="none"><path fill="#3B90F7" d="M19.816 3.113c-.669-.23-1.368-.538-1.867-1.06l-.002-.002c-.491-.513-.816-1.159-1.07-1.868a.275.275 0 0 0-.518 0c-.232.666-.56 1.356-1.07 1.868-.512.512-1.23.824-1.894 1.06-.246.086-.241.433.004.519.677.235 1.366.555 1.89 1.077.525.523.795 1.205 1.038 1.886.089.248.442.241.522-.01.223-.705.532-1.392 1.062-1.913.524-.515 1.23-.817 1.902-1.037.248-.082.25-.434.003-.52M18.069 9.974c-1.83-.631-3.741-1.472-5.11-2.903V7.07c-1.343-1.405-2.233-3.17-2.926-5.112-.239-.668-1.185-.67-1.42 0-.64 1.82-1.528 3.71-2.932 5.112C4.277 8.47 2.314 9.326.498 9.968c-.671.238-.66 1.187.012 1.42 1.852.643 3.747 1.528 5.171 2.95 1.434 1.432 2.174 3.296 2.84 5.163.242.68 1.21.66 1.427-.028.612-1.93 1.474-3.831 2.908-5.238s3.366-2.233 5.203-2.838c.681-.225.687-1.19.01-1.423"/></svg>