<svg xmlns="http://www.w3.org/2000/svg" width="20" height="20" fill="none"><path fill="#FF2638" d="M10 18.75a8.4 8.4 0 0 0 3.371-.686 8.9 8.9 0 0 0 2.797-1.896 9 9 0 0 0 1.896-2.788A8.4 8.4 0 0 0 18.75 10a8.4 8.4 0 0 0-.686-3.371 8.9 8.9 0 0 0-1.896-2.797 8.9 8.9 0 0 0-2.797-1.896 8.4 8.4 0 0 0-3.38-.686 8.4 8.4 0 0 0-3.38.686 9 9 0 0 0-2.787 1.896A9 9 0 0 0 1.936 6.63 8.4 8.4 0 0 0 1.25 10q0 1.793.686 3.38a9 9 0 0 0 1.896 2.788 9 9 0 0 0 2.788 1.896 8.4 8.4 0 0 0 3.38.686m0-7.154q-.687 0-.703-.704l-.112-4.675a.73.73 0 0 1 .215-.558.82.82 0 0 1 .591-.223q.353 0 .584.232.24.223.231.557l-.128 4.667q-.009.704-.678.704m0 2.873a.98.98 0 0 1-.678-.266.86.86 0 0 1-.283-.651q0-.379.283-.652a.94.94 0 0 1 .678-.275q.385 0 .67.274a.85.85 0 0 1 .29.653.85.85 0 0 1-.29.651.95.95 0 0 1-.67.266"/></svg>