<svg xmlns="http://www.w3.org/2000/svg" width="20" height="20" fill="none"><path fill="#3B90F7" d="M10 18.75a8.4 8.4 0 0 0 3.371-.686 8.9 8.9 0 0 0 2.797-1.896 9 9 0 0 0 1.896-2.788A8.4 8.4 0 0 0 18.75 10a8.4 8.4 0 0 0-.686-3.371 8.9 8.9 0 0 0-1.896-2.797 8.9 8.9 0 0 0-2.797-1.896 8.4 8.4 0 0 0-3.38-.686 8.4 8.4 0 0 0-3.38.686 9 9 0 0 0-2.787 1.896A9 9 0 0 0 1.936 6.63 8.4 8.4 0 0 0 1.25 10q0 1.793.686 3.38a9 9 0 0 0 1.896 2.788 9 9 0 0 0 2.788 1.896 8.4 8.4 0 0 0 3.38.686m-1.544-3.792a.66.66 0 0 1-.463-.171.6.6 0 0 1-.19-.455q0-.257.19-.437a.63.63 0 0 1 .463-.19h1.09v-4.04h-.944a.65.65 0 0 1-.455-.171.6.6 0 0 1-.189-.455q0-.257.19-.437a.62.62 0 0 1 .454-.189h1.664q.343 0 .515.223.18.223.18.583v4.487h1.09a.63.63 0 0 1 .463.189q.188.18.188.437a.6.6 0 0 1-.188.455.66.66 0 0 1-.464.171zm1.467-8.012q-.48 0-.824-.334a1.14 1.14 0 0 1-.334-.824q0-.488.334-.824.344-.342.824-.343.489 0 .815.343.334.335.334.824 0 .48-.334.824a1.1 1.1 0 0 1-.815.334"/></svg>