<svg xmlns="http://www.w3.org/2000/svg" width="20" height="20" fill="none"><path fill="#09A639" d="M10 18.75a8.4 8.4 0 0 0 3.371-.686 8.9 8.9 0 0 0 2.797-1.896 9 9 0 0 0 1.896-2.788A8.4 8.4 0 0 0 18.75 10a8.4 8.4 0 0 0-.686-3.371 8.9 8.9 0 0 0-1.896-2.797 8.9 8.9 0 0 0-2.797-1.896 8.4 8.4 0 0 0-3.38-.686 8.4 8.4 0 0 0-3.38.686 9 9 0 0 0-2.787 1.896A9 9 0 0 0 1.936 6.63 8.4 8.4 0 0 0 1.25 10q0 1.793.686 3.38a9 9 0 0 0 1.896 2.788 9 9 0 0 0 2.788 1.896 8.4 8.4 0 0 0 3.38.686m-.96-4.564a.86.86 0 0 1-.404-.094 1.1 1.1 0 0 1-.352-.318l-2.153-2.642a1.4 1.4 0 0 1-.154-.266.9.9 0 0 1-.052-.291q0-.292.198-.498a.64.64 0 0 1 .489-.214q.188 0 .334.077a1 1 0 0 1 .317.292l1.742 2.247 3.663-5.885q.24-.394.618-.394.274 0 .497.18a.56.56 0 0 1 .223.472.7.7 0 0 1-.069.291 3 3 0 0 1-.145.275L9.76 13.775a.96.96 0 0 1-.318.308.8.8 0 0 1-.403.103"/></svg>