<svg xmlns="http://www.w3.org/2000/svg" width="20" height="20" fill="none"><path fill="gold" d="M3.53 17.932h12.94q.71 0 1.22-.3.509-.3.784-.819a2.37 2.37 0 0 0 .192-1.736 2.5 2.5 0 0 0-.242-.576L11.945 3.213a2.16 2.16 0 0 0-.851-.852A2.2 2.2 0 0 0 10 2.069q-.576 0-1.102.292-.526.284-.843.852L1.575 14.5a2.3 2.3 0 0 0-.325 1.169q0 .634.276 1.144.275.517.784.818.51.3 1.22.3"/><path fill="#B36200" d="M9.324 11.662q.017.684.685.685.651 0 .66-.685l.124-4.542a.68.68 0 0 0-.225-.543.77.77 0 0 0-.568-.225.8.8 0 0 0-.576.217.7.7 0 0 0-.209.543zM9.349 14.885q.285.259.66.259a.92.92 0 0 0 .65-.26.83.83 0 0 0 .285-.634.83.83 0 0 0-.284-.634.9.9 0 0 0-.651-.267.91.91 0 0 0-.66.267.85.85 0 0 0-.276.634q0 .375.276.635"/></svg>