<svg width="20" height="20" viewBox="0 0 20 20" fill="none" xmlns="http://www.w3.org/2000/svg">
<path d="M13.1812 6.25732C13.3731 6.25732 13.5475 6.31994 13.7012 6.44287C13.8592 6.56944 13.9391 6.73904 13.9392 6.9458C13.9392 7.05309 13.9139 7.1598 13.8647 7.2644C13.8236 7.35827 13.7762 7.44672 13.7231 7.5293L9.80225 13.7048C9.62022 13.9838 9.36971 14.1284 9.05518 14.1284C8.90267 14.1284 8.76113 14.0949 8.63159 14.0271C8.53873 13.976 8.44807 13.9028 8.36182 13.8098L8.27759 13.7109L6.18408 11.1377L6.18286 11.1353C6.04538 10.9499 5.97296 10.76 5.9729 10.5664C5.9729 10.3623 6.04183 10.1864 6.1792 10.0427C6.32188 9.89384 6.49501 9.81703 6.69556 9.81689C6.82286 9.81689 6.94018 9.84502 7.0459 9.8999C7.16194 9.95147 7.27326 10.052 7.37915 10.1929L9.01489 12.3096L12.5281 6.67236C12.6961 6.40255 12.9139 6.25741 13.1812 6.25732Z" fill="#09A639"/>
<path fill-rule="evenodd" clip-rule="evenodd" d="M9.99023 1.18774C11.1936 1.18775 12.3287 1.4177 13.3948 1.87866C14.4599 2.33927 15.3989 2.97583 16.2109 3.78784C17.0229 4.59985 17.6595 5.53884 18.1201 6.604C18.5811 7.66439 18.811 8.79665 18.811 10C18.811 11.2034 18.5811 12.3385 18.1201 13.4045C17.6595 14.464 17.0229 15.4002 16.2109 16.2122C15.3989 17.0242 14.4599 17.6607 13.3948 18.1213C12.3344 18.5823 11.2021 18.8123 9.99878 18.8123C8.79539 18.8123 7.6603 18.5823 6.59424 18.1213C5.53481 17.6607 4.59857 17.0241 3.78662 16.2122C2.97467 15.4002 2.33806 14.464 1.87744 13.4045C1.41648 12.3385 1.18652 11.2034 1.18652 10C1.18652 8.79665 1.41646 7.66439 1.87744 6.604C2.33801 5.53894 2.97184 4.59984 3.77808 3.78784C4.59002 2.9759 5.52627 2.33928 6.58569 1.87866L6.98853 1.71631C7.93642 1.3634 8.93726 1.18774 9.99023 1.18774ZM9.99023 2.771C9.11163 2.771 8.28379 2.91444 7.5061 3.20068L7.17529 3.33252C6.30198 3.70113 5.53672 4.21713 4.87915 4.88037C4.30363 5.4609 3.83635 6.12139 3.47778 6.86279L3.3313 7.18506C2.96301 8.05763 2.77832 8.99561 2.77832 10C2.77832 11.0044 2.96301 11.9424 3.3313 12.8149L3.47778 13.1372C3.83635 13.8786 4.30363 14.5391 4.87915 15.1196C5.54247 15.7772 6.31042 16.2931 7.18384 16.6675C8.05634 17.0414 8.9945 17.229 9.99878 17.229C11.0031 17.229 11.9412 17.0414 12.8137 16.6675C13.6871 16.2931 14.4551 15.7772 15.1184 15.1196C15.7818 14.4563 16.2976 13.6883 16.6663 12.8149L16.7981 12.4841C17.0843 11.7064 17.2278 10.8786 17.2278 10C17.2278 8.99572 17.0402 8.05756 16.6663 7.18506C16.2919 6.31168 15.7732 5.54372 15.1099 4.88037C14.5346 4.30014 13.8747 3.83253 13.1299 3.47778L12.8052 3.33252C11.9327 2.95859 10.9945 2.771 9.99023 2.771Z" fill="#09A639"/>
</svg>
