<svg width="20" height="20" viewBox="0 0 20 20" fill="none" xmlns="http://www.w3.org/2000/svg">
<path d="M10.0088 13.2853C10.2748 13.2853 10.5063 13.3808 10.7009 13.5685C10.9027 13.7525 11.0061 13.9813 11.0061 14.2496C11.006 14.518 10.904 14.7468 10.7021 14.9308C10.5072 15.1135 10.2748 15.2054 10.0088 15.2054C9.74245 15.2054 9.50731 15.1135 9.30688 14.9308C9.1108 14.7466 9.01156 14.5173 9.01147 14.2496C9.01151 13.9873 9.11081 13.7601 9.30566 13.5709C9.501 13.3815 9.73654 13.2853 10.0088 13.2853Z" fill="#FF6347"/>
<path d="M10.0002 6.28943C10.2437 6.28943 10.4501 6.36942 10.613 6.53235C10.7813 6.68927 10.8619 6.88696 10.856 7.12073L10.7314 11.663C10.7284 11.8996 10.6694 12.0888 10.5447 12.2184C10.4191 12.3486 10.2363 12.4088 10.0088 12.4088C9.77623 12.4088 9.58915 12.349 9.45947 12.2196C9.3301 12.0902 9.26756 11.9004 9.26172 11.663L9.15308 7.11218C9.14725 6.87949 9.22274 6.68128 9.38013 6.5238C9.54344 6.36654 9.75252 6.28948 10.0002 6.28943Z" fill="#FF6347"/>
<path fill-rule="evenodd" clip-rule="evenodd" d="M10.0002 2.00598C10.3945 2.00598 10.7686 2.10603 11.1221 2.30505C11.4839 2.50035 11.7775 2.79397 11.9998 3.18152L18.4792 14.4694C18.5874 14.6573 18.67 14.8549 18.7271 15.0602C18.784 15.2654 18.8125 15.4688 18.8125 15.6693C18.8124 16.0473 18.7409 16.3946 18.5964 16.7094L18.5293 16.8424C18.3402 17.1975 18.0704 17.4786 17.7212 17.6847C17.3704 17.8916 16.953 17.9947 16.4712 17.9948H3.5293C3.04752 17.9947 2.63008 17.8916 2.2793 17.6847C1.97367 17.5043 1.72876 17.2664 1.54565 16.9718L1.47119 16.8424C1.28221 16.493 1.18806 16.1015 1.18799 15.6693C1.18799 15.2516 1.29932 14.8509 1.52124 14.4694L8.00073 3.18152L8.08496 3.04114C8.26109 2.76803 8.47777 2.54801 8.7356 2.38318L8.86865 2.30505C9.22788 2.10568 9.60544 2.00598 10.0002 2.00598ZM10.0002 3.38049C9.8493 3.38049 9.69984 3.41596 9.53516 3.50745L9.52173 3.51477C9.40985 3.57519 9.30158 3.67236 9.20068 3.85291L9.19336 3.86511L2.71021 15.1603C2.60244 15.3455 2.5625 15.5095 2.5625 15.6693C2.56257 15.8951 2.60967 16.0585 2.67969 16.1881L2.68457 16.1954C2.7537 16.3251 2.84446 16.422 2.97754 16.5006C3.078 16.5599 3.24412 16.619 3.5293 16.619H16.4712C16.7564 16.619 16.9225 16.5599 17.0229 16.5006C17.156 16.422 17.2468 16.3263 17.3159 16.1967L17.3208 16.1881C17.3908 16.0585 17.4379 15.8951 17.438 15.6693C17.438 15.601 17.4285 15.5211 17.4026 15.4276C17.377 15.3355 17.3384 15.2454 17.2866 15.1554L10.8071 3.86511C10.6998 3.6781 10.5854 3.5782 10.4702 3.51599L10.4604 3.50989L10.4592 3.50867L10.4482 3.50378C10.2936 3.41653 10.1508 3.38049 10.0002 3.38049Z" fill="#FF6347"/>
</svg>
