<svg xmlns="http://www.w3.org/2000/svg" width="40" height="32" fill="none"><path fill="#000" d="M11.138 1.806c.688-.667 1.031-1 1.43-1.239a4 4 0 0 1 1.137-.46C14.157 0 14.635 0 15.594 0h11.609c4.479 0 6.719 0 8.43.872a8 8 0 0 1 3.494 3.496C40 6.08 40 8.32 40 12.8v6.4c0 4.48 0 6.72-.872 8.432a8 8 0 0 1-3.495 3.496c-1.71.872-3.95.872-8.43.872H15.594c-.957 0-1.436 0-1.888-.106-.4-.095-.784-.25-1.137-.461-.399-.239-.742-.572-1.43-1.24L5.98 25.188c-3.304-3.206-4.956-4.81-5.572-6.669a8 8 0 0 1 0-5.036c.616-1.86 2.268-3.463 5.572-6.67z"/></svg>