<svg xmlns="http://www.w3.org/2000/svg" width="32" height="32" fill="none"><path fill="#000" fill-rule="evenodd" d="M25.012.518C23.035 0 20.37 0 16 0 10.4 0 7.6 0 5.46 1.09a10 10 0 0 0-4.37 4.37C0 7.6 0 10.4 0 16s0 8.4 1.09 10.54a10 10 0 0 0 4.37 4.37C7.6 32 10.4 32 16 32s8.4 0 10.54-1.09a10 10 0 0 0 4.37-4.37C32 24.4 32 21.6 32 16c0-4.362 0-7.025-.515-9h-3.121c-.39 0-.74 0-1.03-.024a2.5 2.5 0 0 1-.969-.249 2.5 2.5 0 0 1-1.092-1.092 2.5 2.5 0 0 1-.25-.968C25 4.375 25 4.025 25 3.637V1.363c0-.31 0-.596.012-.846" clip-rule="evenodd"/></svg>