<svg xmlns="http://www.w3.org/2000/svg" width="8" height="8" fill="none"><path fill="#8E9194" d="M1.5.5a.5.5 0 0 1 1 0V1a.5.5 0 0 1-1 0zm4 0a.5.5 0 0 1 1 0V1a.5.5 0 0 1-1 0zM4 4.293l-.646-.647a.5.5 0 1 0-.708.708L3.293 5l-.647.646a.5.5 0 1 0 .708.708L4 5.707l.646.647a.5.5 0 1 0 .708-.708L4.707 5l.647-.646a.5.5 0 1 0-.708-.708z"/><path fill="#8E9194" fill-rule="evenodd" d="M5 .8H3v.438s0 .729-1 .729-1-.73-1-.73V.892Q.904.921.819.963a1.5 1.5 0 0 0-.656.656C0 1.939 0 2.359 0 3.2v2.4c0 .84 0 1.26.163 1.58.144.282.374.516.656.66.314.16.724.16 1.53.16h3.303c.805 0 1.215 0 1.529-.16a1.5 1.5 0 0 0 .656-.66C8 6.86 8 6.44 8 5.6V3.2c0-.84 0-1.26-.163-1.581A1.5 1.5 0 0 0 7.18.963 1 1 0 0 0 7 .891v.347s0 .729-1 .729-1-.73-1-.73zM1 4a1 1 0 0 1 1-1h4a1 1 0 0 1 1 1v2a1 1 0 0 1-1 1H2a1 1 0 0 1-1-1z" clip-rule="evenodd"/></svg>