<svg xmlns="http://www.w3.org/2000/svg" width="40" height="40" fill="none"><path fill="#000" fill-rule="evenodd" d="M30.025.598C27.872 0 25.1 0 20 0c-5.586 0-8.379 0-10.624.786a14 14 0 0 0-8.59 8.59C0 11.621 0 14.414 0 20s0 8.379.786 10.624a14 14 0 0 0 8.59 8.59C11.621 40 14.414 40 20 40s8.379 0 10.624-.786a14 14 0 0 0 8.59-8.59C40 28.379 40 25.586 40 20c0-5.08 0-7.851-.591-10H34.71c-.545 0-1.035 0-1.443-.034-.437-.036-.901-.119-1.356-.355a3.54 3.54 0 0 1-1.53-1.561c-.231-.464-.312-.938-.348-1.383A20 20 0 0 1 30 5.194V1.948c0-.502 0-.96.024-1.35" clip-rule="evenodd"/></svg>