<svg xmlns="http://www.w3.org/2000/svg" width="40" height="40" fill="none"><path fill="#000" fill-rule="evenodd" d="M31.917 9.96c-.617-.043-1.2-.135-1.764-.371A5.15 5.15 0 0 1 27.42 6.91c-.242-.552-.335-1.124-.378-1.728C27 4.602 27 3.895 27 3.049V2.95c0-.846 0-1.553.042-2.133q.023-.349.077-.682C25.354 0 23.11 0 20 0c-5.586 0-8.379 0-10.624.786a14 14 0 0 0-8.59 8.59C0 11.621 0 14.414 0 20s0 8.379.786 10.624a14 14 0 0 0 8.59 8.59C11.621 40 14.414 40 20 40s8.379 0 10.624-.786a14 14 0 0 0 8.59-8.59C40 28.379 40 25.586 40 20s0-8.379-.786-10.624l-.115-.318a5.2 5.2 0 0 1-.966.53c-.564.237-1.147.329-1.764.371-.592.041-1.313.041-2.177.041h-.099c-.863 0-1.584 0-2.177-.04" clip-rule="evenodd"/></svg>