<svg width="16" height="16" fill="none" xmlns="http://www.w3.org/2000/svg"><path d="M16 9.5a2.5 2.5 0 0 1-2.5 2.5H10a.5.5 0 0 1 0-1h3.5c.827 0 1.5-.673 1.5-1.5S14.327 8 13.5 8a1 1 0 0 1-1-1c0-.827-.673-1.5-1.5-1.5-.134 0-.278.026-.451.082a1.002 1.002 0 0 1-1.244-.609A3.005 3.005 0 0 0 6.5 3a3.003 3.003 0 0 0-3 2.952 1 1 0 0 1-.83 1.084A1.988 1.988 0 0 0 1 9c0 1.103.897 2 2 2h3a.5.5 0 0 1 0 1H3a2.994 2.994 0 0 1-.495-5.95c0-.017-.005-.033-.005-.05a4 4 0 0 1 4-4 3.99 3.99 0 0 1 3.743 2.63c.24-.078.491-.13.757-.13A2.5 2.5 0 0 1 13.5 7 2.5 2.5 0 0 1 16 9.5Zm-5.853-.148a.5.5 0 1 0 .707-.707l-2.5-2.499a.5.5 0 0 0-.706 0l-2.501 2.5a.5.5 0 1 0 .707.707L7.5 7.708V13.5a.5.5 0 1 0 1 0V7.706l1.647 1.646Z" fill="#000001"/></svg>