<svg xmlns="http://www.w3.org/2000/svg" width="32" height="32" fill="none"><path fill="#000" fill-rule="evenodd" d="M26.442 6.97c-.432-.03-.84-.095-1.235-.264a3.64 3.64 0 0 1-1.913-1.913c-.17-.395-.235-.803-.265-1.235C23 3.144 23 2.64 23 2.035v-.07c0-.604 0-1.109.03-1.523a6 6 0 0 1 .022-.261C21.312 0 19.079 0 16 0 10.4 0 7.6 0 5.46 1.09a10 10 0 0 0-4.37 4.37C0 7.6 0 10.4 0 16s0 8.4 1.09 10.54a10 10 0 0 0 4.37 4.37C7.6 32 10.4 32 16 32s8.4 0 10.54-1.09a10 10 0 0 0 4.37-4.37C32 24.4 32 21.6 32 16c0-4.795 0-7.538-.684-9.57q-.249.158-.523.276c-.395.17-.803.235-1.235.265C29.144 7 28.64 7 28.035 7h-.07c-.604 0-1.109 0-1.523-.03" clip-rule="evenodd"/></svg>