<svg xmlns="http://www.w3.org/2000/svg" width="8" height="8" fill="none"><path fill="#F50" d="M5.5.7a.5.5 0 0 1 1 0v.5a.5.5 0 0 1-1 0zm-4 0a.5.5 0 0 1 1 0v.5a.5.5 0 0 1-1 0z"/><path fill="#F50" fill-rule="evenodd" d="M3 1h2v.438s0 .729 1 .729 1-.73 1-.73v-.346q.096.03.181.072a1.5 1.5 0 0 1 .656.656C8 2.139 8 2.559 8 3.4v2.2c0 .84 0 1.26-.163 1.581a1.5 1.5 0 0 1-.656.656C6.861 8 6.441 8 5.6 8H2.4c-.84 0-1.26 0-1.581-.163a1.5 1.5 0 0 1-.656-.656C0 6.861 0 6.441 0 5.6V3.4c0-.84 0-1.26.163-1.581a1.5 1.5 0 0 1 .656-.656q.085-.042.181-.072v.347s0 .729 1 .729 1-.73 1-.73zM2 3.25a.75.75 0 0 0-.75.75v2c0 .414.336.75.75.75h4A.75.75 0 0 0 6.75 6V4A.75.75 0 0 0 6 3.25z" clip-rule="evenodd"/></svg>