<svg xmlns="http://www.w3.org/2000/svg" width="24" height="24" fill="none"><path fill="#000" fill-rule="evenodd" d="M18.442 6.97c-.432-.03-.84-.095-1.235-.264a3.64 3.64 0 0 1-1.913-1.913c-.17-.395-.235-.803-.265-1.235C15 3.144 15 2.64 15 2.035v-.07c0-.604 0-1.109.03-1.523q.014-.215.043-.422C14.21 0 13.202 0 12 0 8.272 0 6.409 0 4.939.609a8 8 0 0 0-4.33 4.33C0 6.409 0 8.272 0 12s0 5.591.609 7.061a8 8 0 0 0 4.33 4.33C6.409 24 8.272 24 12 24s5.591 0 7.061-.609a8 8 0 0 0 4.33-4.33C24 17.592 24 15.728 24 12c0-2.812 0-4.563-.261-5.885a3.6 3.6 0 0 1-.946.591c-.395.17-.803.235-1.235.265C21.144 7 20.64 7 20.035 7h-.07c-.604 0-1.109 0-1.523-.03" clip-rule="evenodd"/></svg>