<svg xmlns="http://www.w3.org/2000/svg" width="24" height="24" fill="none"><path fill="#000" fill-rule="evenodd" d="M17.045.135C15.828 0 14.255 0 12 0 8.272 0 6.409 0 4.939.609a8 8 0 0 0-4.33 4.33C0 6.409 0 8.272 0 12s0 5.591.609 7.061a8 8 0 0 0 4.33 4.33C6.409 24 8.272 24 12 24s5.591 0 7.061-.609a8 8 0 0 0 4.33-4.33C24 17.592 24 15.728 24 12c0-2.228 0-3.79-.13-5h-3.506c-.39 0-.74 0-1.03-.024a2.5 2.5 0 0 1-.969-.248 2.5 2.5 0 0 1-1.092-1.093 2.5 2.5 0 0 1-.25-.968C17 4.375 17 4.025 17 3.637V1.363c0-.39 0-.74.024-1.03q.008-.098.02-.2" clip-rule="evenodd"/></svg>